<mxfile host="app.diagrams.net" modified="2023-09-09T11:29:09.979Z" agent="Mozilla/5.0 (Windows NT 10.0; Win64; x64) AppleWebKit/537.36 (KHTML, like Gecko) Chrome/114.0.0.0 YaBrowser/23.7.4.971 Yowser/2.5 Safari/537.36" etag="x-QUyXUMlqYAweyRnaNu" version="21.7.4" type="github">
  <diagram name="Страница — 1" id="oDiCtgSkFk4E8elgEKD5">
    <mxGraphModel dx="2310" dy="1318" grid="1" gridSize="10" guides="1" tooltips="1" connect="1" arrows="1" fold="1" page="1" pageScale="1" pageWidth="827" pageHeight="1169" math="0" shadow="0">
      <root>
        <mxCell id="0" />
        <mxCell id="1" parent="0" />
        <mxCell id="omgXe2g3dsfElKqKCzuu-1" value="&lt;font style=&quot;font-size: 23px;&quot;&gt;Диаграмма выполнения упражнений на день&lt;/font&gt;" style="rounded=0;whiteSpace=wrap;html=1;fillColor=#dae8fc;strokeColor=#6c8ebf;" vertex="1" parent="1">
          <mxGeometry x="40" y="40" width="760" height="60" as="geometry" />
        </mxCell>
        <mxCell id="omgXe2g3dsfElKqKCzuu-2" value="&lt;font style=&quot;font-size: 27px;&quot;&gt;Система&lt;/font&gt;" style="rounded=0;whiteSpace=wrap;html=1;" vertex="1" parent="1">
          <mxGeometry x="40" y="100" width="380" height="60" as="geometry" />
        </mxCell>
        <mxCell id="omgXe2g3dsfElKqKCzuu-3" value="&lt;font style=&quot;font-size: 27px;&quot;&gt;Клиент&lt;/font&gt;" style="rounded=0;whiteSpace=wrap;html=1;" vertex="1" parent="1">
          <mxGeometry x="420" y="100" width="380" height="60" as="geometry" />
        </mxCell>
        <mxCell id="omgXe2g3dsfElKqKCzuu-6" style="edgeStyle=orthogonalEdgeStyle;rounded=0;orthogonalLoop=1;jettySize=auto;html=1;entryX=0.5;entryY=0;entryDx=0;entryDy=0;" edge="1" parent="1" source="omgXe2g3dsfElKqKCzuu-4" target="omgXe2g3dsfElKqKCzuu-5">
          <mxGeometry relative="1" as="geometry" />
        </mxCell>
        <mxCell id="omgXe2g3dsfElKqKCzuu-4" value="" style="ellipse;whiteSpace=wrap;html=1;aspect=fixed;fillColor=#dae8fc;strokeColor=#6c8ebf;" vertex="1" parent="1">
          <mxGeometry x="570" y="200" width="80" height="80" as="geometry" />
        </mxCell>
        <mxCell id="omgXe2g3dsfElKqKCzuu-8" style="edgeStyle=orthogonalEdgeStyle;rounded=0;orthogonalLoop=1;jettySize=auto;html=1;entryX=0.5;entryY=0;entryDx=0;entryDy=0;" edge="1" parent="1" source="omgXe2g3dsfElKqKCzuu-5" target="omgXe2g3dsfElKqKCzuu-7">
          <mxGeometry relative="1" as="geometry" />
        </mxCell>
        <mxCell id="omgXe2g3dsfElKqKCzuu-5" value="Вывести список упражнений на день" style="rounded=1;whiteSpace=wrap;html=1;fillColor=#dae8fc;strokeColor=#6c8ebf;" vertex="1" parent="1">
          <mxGeometry x="75" y="280" width="310" height="60" as="geometry" />
        </mxCell>
        <mxCell id="omgXe2g3dsfElKqKCzuu-10" style="edgeStyle=orthogonalEdgeStyle;rounded=0;orthogonalLoop=1;jettySize=auto;html=1;entryX=1;entryY=0;entryDx=0;entryDy=0;" edge="1" parent="1" source="omgXe2g3dsfElKqKCzuu-7" target="omgXe2g3dsfElKqKCzuu-9">
          <mxGeometry relative="1" as="geometry" />
        </mxCell>
        <mxCell id="omgXe2g3dsfElKqKCzuu-11" value="Есть упражнения для выполнения&lt;br&gt;" style="edgeLabel;html=1;align=center;verticalAlign=middle;resizable=0;points=[];" vertex="1" connectable="0" parent="omgXe2g3dsfElKqKCzuu-10">
          <mxGeometry x="-0.3692" y="-1" relative="1" as="geometry">
            <mxPoint as="offset" />
          </mxGeometry>
        </mxCell>
        <mxCell id="omgXe2g3dsfElKqKCzuu-13" style="edgeStyle=orthogonalEdgeStyle;rounded=0;orthogonalLoop=1;jettySize=auto;html=1;entryX=0.5;entryY=0;entryDx=0;entryDy=0;" edge="1" parent="1" source="omgXe2g3dsfElKqKCzuu-7" target="omgXe2g3dsfElKqKCzuu-12">
          <mxGeometry relative="1" as="geometry" />
        </mxCell>
        <mxCell id="omgXe2g3dsfElKqKCzuu-14" value="Нет упраженения" style="edgeLabel;html=1;align=center;verticalAlign=middle;resizable=0;points=[];" vertex="1" connectable="0" parent="omgXe2g3dsfElKqKCzuu-13">
          <mxGeometry x="-0.3016" y="-4" relative="1" as="geometry">
            <mxPoint as="offset" />
          </mxGeometry>
        </mxCell>
        <mxCell id="omgXe2g3dsfElKqKCzuu-7" value="Есть упражнения для выполнения?" style="rhombus;whiteSpace=wrap;html=1;fillColor=#dae8fc;strokeColor=#6c8ebf;" vertex="1" parent="1">
          <mxGeometry x="500" y="370" width="80" height="80" as="geometry" />
        </mxCell>
        <mxCell id="omgXe2g3dsfElKqKCzuu-17" style="edgeStyle=orthogonalEdgeStyle;rounded=0;orthogonalLoop=1;jettySize=auto;html=1;entryX=1;entryY=0.5;entryDx=0;entryDy=0;" edge="1" parent="1" source="omgXe2g3dsfElKqKCzuu-9" target="omgXe2g3dsfElKqKCzuu-15">
          <mxGeometry relative="1" as="geometry" />
        </mxCell>
        <mxCell id="omgXe2g3dsfElKqKCzuu-9" value="Выбрать упражнение" style="rounded=1;whiteSpace=wrap;html=1;fillColor=#dae8fc;strokeColor=#6c8ebf;" vertex="1" parent="1">
          <mxGeometry x="680" y="550" width="120" height="60" as="geometry" />
        </mxCell>
        <mxCell id="omgXe2g3dsfElKqKCzuu-12" value="" style="ellipse;whiteSpace=wrap;html=1;aspect=fixed;fillColor=#dae8fc;strokeColor=#6c8ebf;" vertex="1" parent="1">
          <mxGeometry x="374" y="450" width="80" height="80" as="geometry" />
        </mxCell>
        <mxCell id="omgXe2g3dsfElKqKCzuu-18" style="edgeStyle=orthogonalEdgeStyle;rounded=0;orthogonalLoop=1;jettySize=auto;html=1;entryX=0.5;entryY=0;entryDx=0;entryDy=0;exitX=0.5;exitY=1;exitDx=0;exitDy=0;" edge="1" parent="1" source="omgXe2g3dsfElKqKCzuu-15" target="omgXe2g3dsfElKqKCzuu-16">
          <mxGeometry relative="1" as="geometry" />
        </mxCell>
        <mxCell id="omgXe2g3dsfElKqKCzuu-15" value="Отобразить информацию об упражнении" style="rounded=1;whiteSpace=wrap;html=1;fillColor=#dae8fc;strokeColor=#6c8ebf;" vertex="1" parent="1">
          <mxGeometry x="60" y="550" width="310" height="60" as="geometry" />
        </mxCell>
        <mxCell id="omgXe2g3dsfElKqKCzuu-20" style="edgeStyle=orthogonalEdgeStyle;rounded=0;orthogonalLoop=1;jettySize=auto;html=1;entryX=0.575;entryY=-0.067;entryDx=0;entryDy=0;entryPerimeter=0;" edge="1" parent="1" source="omgXe2g3dsfElKqKCzuu-16" target="omgXe2g3dsfElKqKCzuu-19">
          <mxGeometry relative="1" as="geometry" />
        </mxCell>
        <mxCell id="omgXe2g3dsfElKqKCzuu-21" value="Не выполнил" style="edgeLabel;html=1;align=center;verticalAlign=middle;resizable=0;points=[];" vertex="1" connectable="0" parent="omgXe2g3dsfElKqKCzuu-20">
          <mxGeometry x="-0.5384" y="3" relative="1" as="geometry">
            <mxPoint as="offset" />
          </mxGeometry>
        </mxCell>
        <mxCell id="omgXe2g3dsfElKqKCzuu-23" style="edgeStyle=orthogonalEdgeStyle;rounded=0;orthogonalLoop=1;jettySize=auto;html=1;" edge="1" parent="1" source="omgXe2g3dsfElKqKCzuu-16" target="omgXe2g3dsfElKqKCzuu-22">
          <mxGeometry relative="1" as="geometry" />
        </mxCell>
        <mxCell id="omgXe2g3dsfElKqKCzuu-24" value="Выполнил" style="edgeLabel;html=1;align=center;verticalAlign=middle;resizable=0;points=[];" vertex="1" connectable="0" parent="omgXe2g3dsfElKqKCzuu-23">
          <mxGeometry x="0.4571" relative="1" as="geometry">
            <mxPoint as="offset" />
          </mxGeometry>
        </mxCell>
        <mxCell id="omgXe2g3dsfElKqKCzuu-16" value="Клиент выполнил упражнение?" style="rhombus;whiteSpace=wrap;html=1;fillColor=#dae8fc;strokeColor=#6c8ebf;" vertex="1" parent="1">
          <mxGeometry x="550" y="790" width="80" height="80" as="geometry" />
        </mxCell>
        <mxCell id="omgXe2g3dsfElKqKCzuu-19" value="Пропустить упражнение" style="rounded=1;whiteSpace=wrap;html=1;fillColor=#dae8fc;strokeColor=#6c8ebf;" vertex="1" parent="1">
          <mxGeometry x="270" y="770" width="120" height="60" as="geometry" />
        </mxCell>
        <mxCell id="omgXe2g3dsfElKqKCzuu-27" style="edgeStyle=orthogonalEdgeStyle;rounded=0;orthogonalLoop=1;jettySize=auto;html=1;" edge="1" parent="1" source="omgXe2g3dsfElKqKCzuu-22">
          <mxGeometry relative="1" as="geometry">
            <mxPoint x="450" y="990" as="targetPoint" />
          </mxGeometry>
        </mxCell>
        <mxCell id="omgXe2g3dsfElKqKCzuu-28" style="edgeStyle=orthogonalEdgeStyle;rounded=0;orthogonalLoop=1;jettySize=auto;html=1;entryX=0.842;entryY=-0.017;entryDx=0;entryDy=0;entryPerimeter=0;" edge="1" parent="1" source="omgXe2g3dsfElKqKCzuu-22" target="omgXe2g3dsfElKqKCzuu-26">
          <mxGeometry relative="1" as="geometry">
            <mxPoint x="750" y="990" as="targetPoint" />
            <Array as="points">
              <mxPoint x="751" y="940" />
            </Array>
          </mxGeometry>
        </mxCell>
        <mxCell id="omgXe2g3dsfElKqKCzuu-22" value="" style="rounded=0;whiteSpace=wrap;html=1;fillColor=#dae8fc;strokeColor=#6c8ebf;" vertex="1" parent="1">
          <mxGeometry x="530" y="910" width="120" height="60" as="geometry" />
        </mxCell>
        <mxCell id="omgXe2g3dsfElKqKCzuu-30" style="edgeStyle=orthogonalEdgeStyle;rounded=0;orthogonalLoop=1;jettySize=auto;html=1;entryX=0;entryY=0.5;entryDx=0;entryDy=0;" edge="1" parent="1" source="omgXe2g3dsfElKqKCzuu-25" target="omgXe2g3dsfElKqKCzuu-29">
          <mxGeometry relative="1" as="geometry" />
        </mxCell>
        <mxCell id="omgXe2g3dsfElKqKCzuu-25" value="Изменить статус выполнения упражнения" style="rounded=1;whiteSpace=wrap;html=1;" vertex="1" parent="1">
          <mxGeometry x="410" y="1000" width="120" height="60" as="geometry" />
        </mxCell>
        <mxCell id="omgXe2g3dsfElKqKCzuu-31" style="edgeStyle=orthogonalEdgeStyle;rounded=0;orthogonalLoop=1;jettySize=auto;html=1;entryX=1;entryY=0.5;entryDx=0;entryDy=0;" edge="1" parent="1" source="omgXe2g3dsfElKqKCzuu-26" target="omgXe2g3dsfElKqKCzuu-29">
          <mxGeometry relative="1" as="geometry" />
        </mxCell>
        <mxCell id="omgXe2g3dsfElKqKCzuu-26" value="Ввести данные о пульсе" style="rounded=1;whiteSpace=wrap;html=1;" vertex="1" parent="1">
          <mxGeometry x="650" y="1000" width="120" height="60" as="geometry" />
        </mxCell>
        <mxCell id="omgXe2g3dsfElKqKCzuu-29" value="" style="rounded=0;whiteSpace=wrap;html=1;fillColor=#dae8fc;strokeColor=#6c8ebf;" vertex="1" parent="1">
          <mxGeometry x="530" y="1080" width="120" height="60" as="geometry" />
        </mxCell>
      </root>
    </mxGraphModel>
  </diagram>
</mxfile>
